<svg width="66" height="19" viewBox="0 0 66 19" fill="none" xmlns="http://www.w3.org/2000/svg">
<path d="M5.68475 18.1196C4.88565 18.1196 4.15054 17.9594 3.47924 17.6391C2.80804 17.3188 2.23274 16.8703 1.72124 16.2937C1.20984 15.7172 0.826347 15.0445 0.538647 14.3078C0.250947 13.539 0.123047 12.7062 0.123047 11.8093C0.123047 10.9124 0.282945 10.0475 0.570545 9.2787C0.858245 8.51 1.27374 7.8373 1.78524 7.2287C2.29664 6.6521 2.90395 6.1716 3.60715 5.8513C4.31035 5.531 5.04555 5.3708 5.87654 5.3708C6.67564 5.3708 7.37885 5.531 8.01815 5.8833C8.65745 6.2037 9.16885 6.6841 9.58435 7.2927L9.68024 5.7232H12.6209V17.7992H9.68024L9.58435 16.0375C9.16885 16.6781 8.62545 17.1906 7.92225 17.575C7.28295 17.9274 6.51585 18.1196 5.68475 18.1196ZM6.45195 15.2367C7.02725 15.2367 7.53865 15.0765 8.01815 14.7882C8.46565 14.4679 8.81725 14.0515 9.10495 13.539C9.36065 13.0265 9.48845 12.4179 9.48845 11.7452C9.48845 11.0725 9.36065 10.4639 9.10495 9.9514C8.84925 9.4389 8.46565 9.0225 8.01815 8.7022C7.57065 8.3818 7.02725 8.2537 6.45195 8.2537C5.87655 8.2537 5.36515 8.4139 4.88565 8.7022C4.43825 9.0225 4.08665 9.4389 3.79895 9.9514C3.54325 10.4639 3.41534 11.0725 3.41534 11.7452C3.41534 12.4179 3.54325 13.0265 3.79895 13.539C4.05465 14.0515 4.43825 14.4679 4.88565 14.7882C5.36515 15.0765 5.87655 15.2367 6.45195 15.2367ZM17.6392 2.4559C17.6392 2.80825 17.5753 3.12858 17.4154 3.38483C17.2556 3.64109 17.0319 3.86531 16.7442 4.0255C16.4565 4.1856 16.1369 4.2497 15.8173 4.2497C15.4976 4.2497 15.178 4.1856 14.8903 4.0255C14.6026 3.86531 14.3789 3.64109 14.2191 3.38483C14.0592 3.09654 13.9953 2.80825 13.9953 2.4559C13.9953 2.10355 14.0592 1.78323 14.2191 1.52697C14.3789 1.23868 14.6026 1.04649 14.8903 0.88633C15.178 0.72617 15.4976 0.662109 15.8173 0.662109C16.1369 0.662109 16.4565 0.72617 16.7442 0.88633C17.0319 1.04649 17.2556 1.27072 17.4154 1.52697C17.5433 1.78323 17.6392 2.07152 17.6392 2.4559ZM14.2191 17.7672V5.6911H17.4154V17.7672H14.2191ZM25.9498 8.8623V8.8943C25.79 8.8303 25.5982 8.7982 25.4383 8.7662C25.2466 8.7342 25.0867 8.7342 24.895 8.7342C24 8.7342 23.3287 8.9904 22.8812 9.535C22.4018 10.0795 22.178 10.8483 22.178 11.8413V17.7672H18.9817V5.6911H21.9223L22.0182 7.517C22.3379 6.8763 22.7214 6.3958 23.2648 6.0435C23.7762 5.6911 24.3835 5.531 25.0867 5.531C25.3105 5.531 25.5342 5.563 25.726 5.595C25.8219 5.6271 25.8858 5.6271 25.9498 5.6591V8.8623ZM27.2283 17.7672V0.72617H30.4247V7.2287C30.8722 6.6521 31.3836 6.2036 32.0229 5.8513C32.6623 5.531 33.3654 5.3388 34.1645 5.3388C34.9635 5.3388 35.6987 5.4989 36.3699 5.8193C37.0412 6.1396 37.6165 6.588 38.128 7.1646C38.6394 7.7412 39.0229 8.4139 39.3106 9.1506C39.5983 9.9194 39.7261 10.7522 39.7261 11.6491C39.7261 12.546 39.5663 13.4109 39.2787 14.1796C38.991 14.9484 38.5756 15.6211 38.064 16.2297C37.5527 16.8063 36.9454 17.2867 36.2421 17.6071C35.5389 17.9274 34.8037 18.0875 33.9727 18.0875C33.1736 18.0875 32.4704 17.9274 31.8311 17.575C31.1918 17.2547 30.6804 16.7742 30.2649 16.1656L30.169 17.7352L27.2283 17.7672ZM33.3973 15.2367C33.9727 15.2367 34.4841 15.0765 34.9635 14.7882C35.411 14.4679 35.7626 14.0515 36.0503 13.539C36.306 13.0265 36.4339 12.4179 36.4339 11.7452C36.4339 11.0725 36.306 10.4639 36.0503 9.9514C35.7626 9.4389 35.411 9.0225 34.9635 8.7022C34.5161 8.3818 33.9727 8.2537 33.3973 8.2537C32.822 8.2537 32.3106 8.4139 31.8311 8.7022C31.3836 9.0225 31.032 9.4389 30.7443 9.9514C30.4886 10.4639 30.3608 11.0725 30.3608 11.7452C30.3608 12.4179 30.4886 13.0265 30.7443 13.539C31 14.0515 31.3836 14.4679 31.8311 14.7882C32.3106 15.0765 32.822 15.2367 33.3973 15.2367ZM40.9408 17.7672V5.6911H43.8814L43.9773 7.2607C44.3289 6.6841 44.8084 6.2357 45.4157 5.8833C46.023 5.531 46.7262 5.3708 47.5253 5.3708C48.4203 5.3708 49.1874 5.595 49.8267 6.0115C50.4979 6.4279 51.0094 7.0365 51.361 7.8053C51.7126 8.574 51.9043 9.5029 51.9043 10.56V17.7992H48.708V10.9764C48.708 10.1436 48.5162 9.4709 48.1326 8.9904C47.7491 8.51 47.2376 8.2537 46.5664 8.2537C46.0869 8.2537 45.6714 8.3498 45.2878 8.574C44.9362 8.7982 44.6486 9.0865 44.4248 9.503C44.2011 9.8873 44.1052 10.3678 44.1052 10.8483V17.7672H40.9408ZM53.5025 17.7672V0.72617H56.6989V7.2287C57.1464 6.6521 57.6578 6.2036 58.2971 5.8513C58.9364 5.531 59.6396 5.3388 60.4387 5.3388C61.2378 5.3388 61.9729 5.4989 62.6442 5.8193C63.3154 6.1396 63.8907 6.588 64.402 7.1646C64.914 7.7412 65.297 8.4139 65.585 9.1506C65.873 9.9194 66 10.7522 66 11.6491C66 12.546 65.841 13.4109 65.553 14.1796C65.265 14.9484 64.85 15.6211 64.338 16.2297C63.8268 16.8063 63.2195 17.2867 62.5163 17.6071C61.8131 17.9274 61.0779 18.0875 60.2469 18.0875C59.4478 18.0875 58.7446 17.9274 58.1053 17.575C57.466 17.2547 56.9546 16.7742 56.5391 16.1656L56.4432 17.7352L53.5025 17.7672ZM59.7035 15.2367C60.2788 15.2367 60.7903 15.0765 61.2697 14.7882C61.7172 14.4679 62.0688 14.0515 62.3565 13.539C62.6122 13.0265 62.7401 12.4179 62.7401 11.7452C62.7401 11.0725 62.6122 10.4639 62.3565 9.9514C62.1008 9.4389 61.7172 9.0225 61.2697 8.7022C60.8222 8.3818 60.2788 8.2537 59.7035 8.2537C59.1281 8.2537 58.6167 8.4139 58.1373 8.7022C57.6898 9.0225 57.3382 9.4389 57.0505 9.9514C56.7628 10.4639 56.6669 11.0725 56.6669 11.7452C56.6669 12.4179 56.7948 13.0265 57.0505 13.539C57.3062 14.0515 57.6898 14.4679 58.1373 14.7882C58.6167 15.0765 59.0962 15.2367 59.7035 15.2367Z" fill="#FF385C"/>
</svg>
